<?xml version="1.0" standalone="no"?>
<!DOCTYPE svg PUBLIC "-//W3C//DTD SVG 20010904//EN"
 "http://www.w3.org/TR/2001/REC-SVG-20010904/DTD/svg10.dtd">
<svg version="1.0" xmlns="http://www.w3.org/2000/svg"
 width="75.000000pt" height="75.000000pt" viewBox="0 0 75.000000 75.000000"
 preserveAspectRatio="xMidYMid meet" style="background-color: #ea5a4b;">

<g transform="translate(0.000000,75.000000) scale(0.100000,-0.100000)"
fill="#2f4f4f" stroke="none">
<path d="M17 699 c-20 -12 -23 -49 -3 -49 27 0 76 22 76 35 0 23 -42 32 -73
14z"/>
<path d="M210 536 c0 -2 9 -6 20 -9 11 -3 18 -1 14 4 -5 9 -34 13 -34 5z"/>
<path d="M80 485 c0 -8 4 -15 9 -15 5 0 11 7 15 15 3 9 0 15 -9 15 -8 0 -15
-7 -15 -15z"/>
<path d="M576 454 c-16 -18 -32 -31 -36 -29 -4 3 -15 -7 -25 -21 -14 -21 -21
-24 -48 -19 -29 6 -30 6 -14 -7 18 -13 18 -15 0 -37 l-18 -22 -48 20 c-26 11
-51 21 -55 22 -45 8 -55 56 -14 74 22 10 29 29 13 39 -4 3 -19 -8 -31 -24 -13
-17 -27 -30 -31 -30 -5 0 -18 -9 -28 -19 -19 -19 -19 -20 10 -26 39 -9 42 -18
18 -49 -19 -25 -23 -26 -38 -12 -10 9 -23 16 -29 16 -17 0 -42 60 -36 87 5 18
11 22 25 18 14 -5 19 -1 19 13 0 11 -7 23 -16 26 -22 9 -24 8 -24 -9 0 -8 -6
-15 -13 -15 -7 0 -20 -18 -30 -41 -16 -37 -20 -40 -45 -35 -15 4 -33 16 -41
26 -7 11 -20 20 -27 20 -27 0 -14 -17 31 -39 46 -23 54 -38 33 -59 -9 -9 -8
-12 5 -12 9 0 21 9 27 19 9 18 12 19 60 3 31 -10 49 -21 46 -28 -4 -11 14 -24
34 -24 5 0 15 12 22 27 23 47 37 48 122 13 43 -18 80 -39 83 -47 3 -7 -7 -32
-22 -54 l-27 -41 -21 20 c-22 20 -138 86 -141 80 -1 -2 -10 -21 -20 -43 l-18
-40 21 19 c21 19 22 19 68 0 44 -18 47 -22 48 -57 1 -26 -2 -37 -13 -37 -18 0
-73 -46 -65 -54 4 -3 14 -6 24 -6 10 0 24 -8 31 -18 14 -19 38 -37 38 -28 0 3
-9 14 -21 24 l-20 20 36 57 c33 52 39 56 63 50 35 -9 51 -8 152 5 47 6 92 11
100 12 8 1 25 -2 38 -6 21 -7 23 -5 20 20 -2 18 -12 33 -26 40 -36 18 -39 27
-7 21 27 -5 28 -4 10 9 -10 8 -30 14 -43 14 -18 0 -23 4 -18 16 3 8 2 13 -3
10 -5 -3 -14 1 -21 9 -10 12 -8 18 11 34 21 16 26 17 56 5 39 -17 43 -17 43
-4 0 6 -9 10 -20 10 -11 0 -20 5 -20 10 0 6 9 19 20 30 24 24 25 33 4 51 -14
11 -18 10 -27 -6 -6 -11 -21 -30 -33 -42 -13 -13 -29 -33 -35 -44 -8 -16 -17
-19 -37 -14 -15 3 -31 10 -35 15 -12 11 12 53 27 47 9 -4 11 2 8 19 -3 17 0
24 12 24 19 0 21 14 4 28 -10 7 -21 0 -42 -24z m-39 -111 c3 -7 27 -23 54 -34
27 -12 49 -24 49 -28 0 -3 -12 -23 -26 -44 l-26 -38 -52 49 c-28 27 -58 51
-65 53 -11 4 -11 10 2 36 13 24 21 30 38 26 11 -3 23 -12 26 -20z m58 -13 c3
-6 -1 -7 -9 -4 -18 7 -21 14 -7 14 6 0 13 -4 16 -10z"/>
<path d="M546 249 c12 -13 20 -16 22 -9 3 7 -2 16 -9 21 -25 16 -32 9 -13 -12z"/>
<path d="M449 467 c-9 -7 -21 -22 -28 -35 -8 -15 -18 -21 -29 -18 -11 4 -22
-2 -30 -15 -18 -28 -7 -37 18 -14 10 9 26 15 35 11 9 -3 13 -2 10 3 -3 5 6 22
20 37 33 36 36 55 4 31z"/>
<path d="M23 455 c-3 -9 -3 -19 1 -22 7 -7 36 16 36 28 0 15 -30 10 -37 -6z"/>
<path d="M680 332 c0 -5 16 -12 35 -14 19 -2 35 0 35 4 0 4 -6 8 -12 8 -7 0
-23 3 -35 6 -13 4 -23 2 -23 -4z"/>
<path d="M0 291 c0 -18 17 -29 45 -32 6 0 17 -7 25 -14 8 -7 29 -16 45 -19 28
-6 27 -5 -7 11 -30 15 -35 21 -28 34 7 12 6 19 -4 22 -8 3 -17 -1 -20 -10 -6
-14 -9 -13 -27 5 -24 27 -29 27 -29 3z"/>
<path d="M130 196 c0 -5 65 -46 73 -46 4 0 11 9 17 20 10 19 9 20 -8 9 -16
-10 -25 -10 -46 4 -25 17 -36 21 -36 13z"/>
<path d="M195 120 c-3 -5 8 -16 24 -25 38 -19 47 -19 31 1 -20 23 -48 36 -55
24z"/>
<path d="M0 82 c0 -15 4 -21 12 -16 6 4 33 6 60 5 26 -1 48 2 48 8 0 16 -19
23 -71 25 -45 1 -49 0 -49 -22z"/>
<path d="M530 87 c0 -7 -11 -29 -25 -50 l-26 -37 28 0 c23 0 31 7 44 39 12 28
14 42 6 50 -15 15 -27 14 -27 -2z"/>
</g>
</svg>
